# Blender 4.2.0
# www.blender.org
mtllib left_hand_thumb_0_link.mtl
o left_hand_thumb_0_link
v -0.011500 -0.000500 -0.009500
v -0.011500 -0.019300 -0.009500
v -0.011500 -0.000500 0.009500
v -0.011500 -0.019300 0.009500
v -0.011423 -0.020475 -0.009500
v -0.011423 -0.020475 0.009500
v -0.011193 -0.021629 -0.009500
v -0.011193 -0.021629 0.009500
v -0.010815 -0.022744 -0.009500
v -0.010815 -0.022744 0.009500
v -0.010294 -0.023800 -0.009500
v -0.010294 -0.023800 0.009500
v -0.009640 -0.024779 -0.009500
v -0.009640 -0.024779 0.009500
v -0.008864 -0.025664 -0.009500
v -0.008864 -0.025664 0.009500
v -0.007979 -0.026440 -0.009500
v -0.007979 -0.026440 0.009500
v -0.007000 -0.027094 -0.009500
v -0.007000 -0.027094 0.009500
v -0.005944 -0.027615 -0.009500
v -0.005944 -0.027615 0.009500
v -0.004829 -0.027993 -0.009500
v -0.004829 -0.027993 0.009500
v -0.003675 -0.028223 -0.009500
v -0.003675 -0.028223 0.009500
v -0.002500 -0.028300 -0.009500
v -0.002500 -0.028300 0.009500
v 0.007393 -0.028300 0.009500
v 0.007393 -0.028300 -0.009500
v 0.007746 -0.028154 -0.009500
v 0.009954 -0.025946 -0.009500
v 0.007746 -0.028154 0.009500
v 0.009954 -0.025946 0.009500
v 0.010100 -0.025593 -0.009500
v 0.010100 -0.000500 -0.009500
v 0.010100 -0.025593 0.009500
v 0.010100 -0.000500 0.009500
v -0.011000 -0.000000 0.009500
v 0.009600 -0.000000 0.009500
v -0.011000 -0.000000 -0.009500
v 0.009600 -0.000000 -0.009500
v -0.011492 -0.000413 0.009500
v -0.011000 -0.000000 0.009500
v 0.010005 -0.025887 0.009500
v 0.010046 -0.025820 0.009500
v 0.010076 -0.025747 0.009500
v 0.010070 -0.000329 0.009500
v 0.010033 -0.000250 0.009500
v 0.009921 -0.000117 0.009500
v 0.009850 -0.000067 0.009500
v 0.009771 -0.000030 0.009500
v 0.007547 -0.028276 0.009500
v 0.007620 -0.028246 0.009500
v 0.007687 -0.028205 0.009500
v 0.010094 -0.025671 0.009500
v 0.010092 -0.000413 0.009500
v 0.009983 -0.000179 0.009500
v 0.009687 -0.000008 0.009500
v -0.011321 -0.000117 0.009500
v -0.011383 -0.000179 0.009500
v -0.011250 -0.000067 0.009500
v -0.011087 -0.000008 0.009500
v -0.011171 -0.000030 0.009500
v -0.011433 -0.000250 0.009500
v -0.011470 -0.000329 0.009500
v 0.007471 -0.028294 0.009500
v 0.010076 -0.025747 -0.009500
v 0.010046 -0.025820 -0.009500
v -0.011492 -0.000413 -0.009500
v -0.011470 -0.000329 -0.009500
v 0.010094 -0.025671 -0.009500
v 0.010005 -0.025887 -0.009500
v 0.007547 -0.028276 -0.009500
v 0.007471 -0.028294 -0.009500
v 0.010033 -0.000250 -0.009500
v 0.010070 -0.000329 -0.009500
v 0.009600 0.000000 -0.009500
v 0.009771 -0.000030 -0.009500
v 0.009850 -0.000067 -0.009500
v 0.009921 -0.000117 -0.009500
v 0.010092 -0.000413 -0.009500
v -0.011433 -0.000250 -0.009500
v -0.011383 -0.000179 -0.009500
v -0.011321 -0.000117 -0.009500
v -0.011250 -0.000067 -0.009500
v -0.011171 -0.000030 -0.009500
v -0.011087 -0.000008 -0.009500
v 0.009687 -0.000008 -0.009500
v 0.007687 -0.028205 -0.009500
v 0.007620 -0.028246 -0.009500
v 0.009983 -0.000179 -0.009500
v -0.011000 -0.000000 -0.009500
v 0.009600 0.000000 0.009500
vn -0.7160 0.0313 -0.6974
vn -0.7140 -0.0234 -0.6998
vn -0.7160 0.0313 0.6974
vn -0.7139 -0.0234 0.6998
vn -0.7151 -0.0941 -0.6927
vn -0.7151 -0.0941 0.6927
vn -0.6967 -0.1867 -0.6927
vn -0.6967 -0.1867 0.6927
vn -0.6664 -0.2760 -0.6927
vn -0.6664 -0.2760 0.6927
vn -0.6246 -0.3606 -0.6927
vn -0.6246 -0.3606 0.6927
vn -0.5722 -0.4391 -0.6927
vn -0.5722 -0.4391 0.6927
vn -0.5100 -0.5100 -0.6927
vn -0.5100 -0.5100 0.6927
vn -0.4391 -0.5722 -0.6927
vn -0.4391 -0.5722 0.6927
vn -0.3606 -0.6246 -0.6927
vn -0.3606 -0.6246 0.6927
vn -0.2760 -0.6664 -0.6927
vn -0.2760 -0.6664 0.6927
vn -0.1867 -0.6967 -0.6927
vn -0.1867 -0.6967 0.6927
vn -0.0941 -0.7151 -0.6927
vn -0.0941 -0.7151 0.6927
vn -0.0234 -0.7139 -0.6998
vn -0.0234 -0.7139 0.6998
vn 0.0281 -0.7152 0.6984
vn 0.0281 -0.7152 -0.6984
vn 0.4858 -0.5256 -0.6984
vn 0.5256 -0.4858 -0.6984
vn 0.4858 -0.5256 0.6984
vn 0.5256 -0.4858 0.6984
vn 0.7152 -0.0281 -0.6984
vn 0.7160 0.0313 -0.6974
vn 0.7152 -0.0281 0.6984
vn 0.7160 0.0313 0.6974
vn -0.0000 1.0000 -0.0000
vn -0.0000 0.4574 0.8893
vn -0.0000 0.4574 -0.8893
vn -0.7147 0.1260 0.6880
vn -0.0399 0.4556 0.8893
vn 0.5857 -0.4255 0.6899
vn 0.6450 -0.3287 0.6899
vn 0.6885 -0.2237 0.6899
vn 0.6819 0.2482 0.6880
vn 0.6285 0.3629 0.6880
vn 0.4665 0.5559 0.6880
vn 0.3629 0.6285 0.6880
vn 0.2482 0.6819 0.6880
vn 0.2237 -0.6885 0.6899
vn 0.3287 -0.6450 0.6899
vn 0.4255 -0.5857 0.6899
vn 0.7150 -0.1132 0.6899
vn 0.7147 0.1260 0.6880
vn 0.5559 0.4665 0.6880
vn 0.1260 0.7147 0.6880
vn -0.4665 0.5559 0.6880
vn -0.5559 0.4665 0.6880
vn -0.3629 0.6285 0.6880
vn -0.1260 0.7147 0.6880
vn -0.2482 0.6819 0.6880
vn -0.6285 0.3629 0.6880
vn -0.6819 0.2482 0.6880
vn 0.1133 -0.7150 0.6899
vn 0.6885 -0.2237 -0.6899
vn 0.6450 -0.3287 -0.6899
vn -0.7147 0.1260 -0.6880
vn -0.6819 0.2482 -0.6880
vn 0.7150 -0.1133 -0.6899
vn 0.5857 -0.4255 -0.6899
vn 0.2237 -0.6885 -0.6899
vn 0.1132 -0.7150 -0.6899
vn 0.6285 0.3629 -0.6880
vn 0.6819 0.2482 -0.6880
vn 0.0399 0.4556 -0.8893
vn 0.2482 0.6819 -0.6880
vn 0.3629 0.6285 -0.6880
vn 0.4665 0.5559 -0.6880
vn 0.7147 0.1260 -0.6880
vn -0.6285 0.3629 -0.6880
vn -0.5559 0.4665 -0.6880
vn -0.4665 0.5559 -0.6880
vn -0.3629 0.6285 -0.6880
vn -0.2482 0.6819 -0.6880
vn -0.1260 0.7147 -0.6880
vn 0.1260 0.7147 -0.6880
vn 0.4255 -0.5857 -0.6899
vn 0.3287 -0.6450 -0.6899
vn 0.5559 0.4665 -0.6880
vn -0.0872 0.9962 -0.0000
vn 0.0872 0.9962 -0.0000
s 1
usemtl g1_black
f 1//1 2//2 3//3
f 3//3 2//2 4//4
f 4//4 2//2 5//5
f 4//4 5//5 6//6
f 6//6 5//5 7//7
f 6//6 7//7 8//8
f 8//8 7//7 9//9
f 8//8 9//9 10//10
f 10//10 9//9 11//11
f 10//10 11//11 12//12
f 12//12 11//11 13//13
f 12//12 13//13 14//14
f 14//14 13//13 15//15
f 14//14 15//15 16//16
f 16//16 15//15 17//17
f 16//16 17//17 18//18
f 18//18 17//17 19//19
f 18//18 19//19 20//20
f 20//20 19//19 21//21
f 20//20 21//21 22//22
f 22//22 21//21 23//23
f 22//22 23//23 24//24
f 24//24 23//23 25//25
f 24//24 25//25 26//26
f 26//26 25//25 27//27
f 26//26 27//27 28//28
f 29//29 28//28 30//30
f 30//30 28//28 27//27
f 31//31 32//32 33//33
f 33//33 32//32 34//34
f 35//35 36//36 37//37
f 37//37 36//36 38//38
f 39//39 40//40 41//41
f 41//41 40//40 42//39
f 43//42 3//3 44//43
f 44//43 3//3 40//40
f 6//6 26//26 4//4
f 4//4 26//26 28//28
f 4//4 28//28 34//34
f 34//34 28//28 29//29
f 34//34 29//29 33//33
f 34//34 45//44 4//4
f 4//4 45//44 46//45
f 4//4 46//45 47//46
f 40//40 48//47 49//48
f 50//49 51//50 52//51
f 53//52 54//53 55//54
f 47//46 56//55 4//4
f 4//4 56//55 37//37
f 4//4 37//37 3//3
f 3//3 37//37 38//38
f 3//3 38//38 40//40
f 40//40 38//38 57//56
f 40//40 57//56 48//47
f 49//48 58//57 40//40
f 40//40 58//57 50//49
f 40//40 50//49 59//58
f 59//58 50//49 52//51
f 44//43 60//59 61//60
f 12//12 14//14 10//10
f 10//10 14//14 16//16
f 16//16 18//18 10//10
f 10//10 18//18 20//20
f 10//10 20//20 22//22
f 60//59 44//43 62//61
f 62//61 44//43 63//62
f 62//61 63//62 64//63
f 61//60 65//64 44//43
f 44//43 65//64 66//65
f 44//43 66//65 43//42
f 6//6 8//8 26//26
f 26//26 8//8 10//10
f 26//26 10//10 24//24
f 24//24 10//10 22//22
f 33//33 29//29 55//54
f 55//54 29//29 67//66
f 55//54 67//66 53//52
f 68//67 69//68 41//41
f 70//69 71//70 41//41
f 68//67 41//41 72//71
f 69//68 73//72 41//41
f 41//41 73//72 32//32
f 41//41 32//32 31//31
f 74//73 75//74 41//41
f 41//41 75//74 30//30
f 41//41 30//30 27//27
f 7//7 5//5 25//25
f 25//25 5//5 2//2
f 25//25 2//2 27//27
f 27//27 2//2 41//41
f 41//41 2//2 1//1
f 41//41 1//1 70//69
f 76//75 77//76 78//77
f 17//17 15//15 13//13
f 79//78 80//79 81//80
f 77//76 82//81 78//77
f 78//77 82//81 36//36
f 78//77 36//36 41//41
f 41//41 36//36 35//35
f 41//41 35//35 72//71
f 21//21 19//19 9//9
f 9//9 19//19 17//17
f 9//9 17//17 11//11
f 11//11 17//17 13//13
f 71//70 83//82 41//41
f 41//41 83//82 84//83
f 41//41 84//83 85//84
f 85//84 86//85 41//41
f 41//41 86//85 87//86
f 41//41 87//86 88//87
f 79//78 81//80 89//88
f 31//31 90//89 41//41
f 41//41 90//89 91//90
f 41//41 91//90 74//73
f 7//7 25//25 9//9
f 9//9 25//25 23//23
f 9//9 23//23 21//21
f 89//88 81//80 78//77
f 78//77 81//80 92//91
f 78//77 92//91 76//75
f 29//29 30//30 75//74
f 29//29 75//74 67//66
f 67//66 75//74 74//73
f 67//66 74//73 53//52
f 53//52 74//73 91//90
f 53//52 91//90 54//53
f 54//53 91//90 90//89
f 54//53 90//89 55//54
f 55//54 90//89 31//31
f 55//54 31//31 33//33
f 34//34 32//32 73//72
f 34//34 73//72 45//44
f 45//44 73//72 69//68
f 45//44 69//68 46//45
f 46//45 69//68 68//67
f 46//45 68//67 47//46
f 47//46 68//67 72//71
f 47//46 72//71 56//55
f 56//55 72//71 35//35
f 56//55 35//35 37//37
f 44//43 93//92 88//87
f 44//43 88//87 63//62
f 63//62 88//87 87//86
f 63//62 87//86 64//63
f 64//63 87//86 86//85
f 64//63 86//85 62//61
f 62//61 86//85 85//84
f 62//61 85//84 60//59
f 60//59 85//84 84//83
f 60//59 84//83 61//60
f 61//60 84//83 83//82
f 61//60 83//82 65//64
f 65//64 83//82 71//70
f 65//64 71//70 66//65
f 66//65 71//70 70//69
f 66//65 70//69 43//42
f 43//42 70//69 1//1
f 43//42 1//1 3//3
f 38//38 36//36 82//81
f 38//38 82//81 57//56
f 57//56 82//81 77//76
f 57//56 77//76 48//47
f 48//47 77//76 76//75
f 48//47 76//75 49//48
f 49//48 76//75 92//91
f 49//48 92//91 58//57
f 58//57 92//91 81//80
f 58//57 81//80 50//49
f 50//49 81//80 80//79
f 50//49 80//79 51//50
f 51//50 80//79 79//78
f 51//50 79//78 52//51
f 52//51 79//78 89//88
f 52//51 89//88 59//58
f 59//58 89//88 78//77
f 59//58 78//77 94//93
