# Blender v3.0.1 OBJ File: ''
# www.blender.org
mtllib left_hand_middle_0_link.mtl
o left_hand_index_0_link.001_left_hand_index_0_link.002
v 0.052694 -0.005785 0.009500
v 0.051585 -0.006894 0.009500
v 0.054800 0.000000 0.009500
v 0.053594 -0.004500 0.009500
v 0.054257 -0.003078 0.009500
v 0.054663 -0.001563 0.009500
v 0.054800 0.009000 -0.012800
v 0.054800 0.006000 0.012900
v 0.054800 0.000000 -0.009500
v 0.050300 -0.007794 -0.009500
v 0.051585 -0.006894 -0.009500
v 0.052694 -0.005785 -0.009500
v 0.053594 -0.004500 -0.009500
v 0.054257 -0.003078 -0.009500
v 0.054663 -0.001563 -0.009500
v 0.036790 -0.008892 -0.012800
v 0.037025 -0.008783 -0.012800
v 0.036874 -0.008870 -0.012800
v 0.052171 0.012594 -0.012800
v 0.052247 0.012576 -0.012800
v 0.052320 0.012546 -0.012800
v 0.054776 0.010047 -0.012800
v 0.054794 0.009971 -0.012800
v 0.052387 0.012505 -0.012800
v 0.054705 0.010187 -0.012800
v 0.054746 0.010120 -0.012800
v 0.054770 0.008829 -0.012800
v 0.054733 0.008750 -0.012800
v 0.054792 0.008913 -0.012800
v 0.054683 0.008679 -0.012800
v 0.038312 -0.008794 0.012900
v 0.038387 -0.008776 0.012900
v 0.038525 -0.008707 0.012900
v 0.052320 0.012546 0.012900
v 0.052247 0.012576 0.012900
v 0.054794 0.009971 0.012900
v 0.054776 0.010047 0.012900
v 0.054746 0.010120 0.012900
v 0.052387 0.012505 0.012900
v 0.052171 0.012594 0.012900
v 0.054705 0.010187 0.012900
v 0.054683 0.005679 0.012900
v 0.054733 0.005750 0.012900
v 0.054792 0.005913 0.012900
v 0.054770 0.005829 0.012900
v 0.020590 -0.013642 0.008943
v 0.021619 -0.014378 0.008943
v 0.022851 -0.014649 0.008943
v 0.041048 -0.014649 0.008944
v 0.042280 -0.014378 0.008944
v 0.042425 -0.014261 0.009104
v 0.020591 -0.013642 -0.007744
v 0.020503 -0.013475 -0.007906
v 0.021620 -0.014378 -0.007744
v 0.022851 -0.014649 -0.007744
v 0.041048 -0.014649 -0.007744
v 0.042280 -0.014378 -0.007744
v 0.041231 -0.013533 0.010472
v 0.041619 -0.013453 0.010472
v 0.041985 -0.013296 0.010471
v 0.041973 -0.013275 0.010483
v 0.042140 -0.013172 0.010483
v 0.042313 -0.013072 0.010470
v 0.042297 -0.013054 0.010483
v 0.041794 -0.013389 -0.009271
v 0.041743 -0.014394 -0.008581
v 0.042194 -0.014197 -0.008638
v 0.042191 -0.014190 -0.008646
v 0.041982 -0.014333 -0.008548
v 0.042207 -0.014226 -0.008591
v 0.042643 -0.013989 -0.008581
v 0.042205 -0.014221 -0.008601
v 0.041260 -0.014453 -0.008611
v 0.041737 -0.014373 -0.008620
v 0.042200 -0.014210 -0.008621
v 0.042634 -0.013976 -0.008611
v 0.042627 -0.013965 -0.008630
v 0.041728 -0.014336 -0.008661
v 0.041984 -0.014258 -0.008661
v 0.041732 -0.014352 -0.008646
v 0.042361 -0.014088 -0.008661
v 0.042211 -0.014234 -0.008570
v 0.041979 -0.014323 -0.008581
v 0.041257 -0.014425 -0.008646
v 0.041745 -0.014401 -0.008559
v 0.041262 -0.014477 -0.008558
v 0.041261 -0.014469 -0.008580
v 0.042647 -0.013995 -0.008559
v 0.042212 -0.014237 -0.008559
v 0.041596 -0.014364 -0.008660
v 0.022307 -0.014441 -0.008504
v 0.020151 -0.012698 -0.008525
v 0.021705 -0.014197 -0.008639
v 0.022167 -0.014351 -0.008647
v 0.022157 -0.014389 -0.008592
v 0.021922 -0.014318 -0.008592
v 0.022639 -0.014453 -0.008611
v 0.022159 -0.014384 -0.008602
v 0.022642 -0.014424 -0.008646
v 0.022813 -0.014418 -0.008661
v 0.022640 -0.014439 -0.008630
v 0.023117 -0.014442 -0.008646
v 0.021696 -0.014216 -0.008612
v 0.021262 -0.013981 -0.008602
v 0.021699 -0.014210 -0.008621
v 0.020877 -0.013680 -0.008601
v 0.021272 -0.013965 -0.008630
v 0.022154 -0.014403 -0.008549
v 0.022153 -0.014405 -0.008538
v 0.021685 -0.014242 -0.008538
v 0.021141 -0.013928 -0.008504
v 0.020999 -0.013819 -0.008504
v 0.020689 -0.013523 -0.008537
v 0.021250 -0.014000 -0.008537
v 0.021251 -0.013998 -0.008548
v 0.020863 -0.013695 -0.008548
v 0.021919 -0.014327 -0.008571
v 0.022155 -0.014397 -0.008571
v 0.021689 -0.014234 -0.008571
v 0.021256 -0.013989 -0.008581
v 0.021920 -0.014323 -0.008581
v 0.021692 -0.014226 -0.008592
v 0.020544 -0.013325 -0.008591
v 0.020870 -0.013687 -0.008581
v 0.020537 -0.013330 -0.008570
v 0.020532 -0.013334 -0.008548
v 0.020135 -0.012666 -0.008502
v 0.020192 -0.012792 -0.008502
v 0.020386 -0.013135 -0.008525
v 0.020259 -0.012922 -0.008525
v 0.020268 -0.012917 -0.008570
v 0.022637 -0.014476 -0.008559
v 0.022638 -0.014469 -0.008580
v 0.021908 -0.014255 -0.008661
v 0.022298 -0.014363 -0.008661
v 0.042191 -0.014190 0.009846
v 0.041731 -0.014352 0.009846
v 0.041260 -0.014459 0.009801
v 0.041742 -0.014394 0.009781
v 0.041977 -0.014319 0.009791
v 0.040781 -0.014483 0.009790
v 0.041740 -0.014385 0.009801
v 0.041257 -0.014425 0.009846
v 0.041258 -0.014440 0.009829
v 0.042205 -0.014221 0.009801
v 0.042634 -0.013976 0.009811
v 0.041737 -0.014373 0.009820
v 0.042200 -0.014210 0.009821
v 0.042754 -0.013836 0.009861
v 0.042360 -0.014088 0.009861
v 0.042627 -0.013965 0.009830
v 0.041982 -0.014333 0.009748
v 0.041745 -0.014404 0.009748
v 0.042650 -0.014001 0.009726
v 0.041743 -0.014398 0.009770
v 0.042647 -0.013995 0.009759
v 0.042212 -0.014237 0.009759
v 0.042213 -0.014240 0.009748
v 0.042643 -0.013989 0.009781
v 0.042209 -0.014230 0.009781
v 0.041978 -0.014323 0.009781
v 0.042207 -0.014226 0.009791
v 0.042210 -0.014234 0.009770
v 0.041590 -0.014442 0.009704
v 0.041262 -0.014477 0.009758
v 0.041261 -0.014469 0.009780
v 0.041984 -0.014258 0.009861
v 0.041595 -0.014364 0.009860
v 0.021132 -0.013924 0.009698
v 0.022332 -0.014446 0.009699
v 0.022155 -0.014397 0.009770
v 0.020558 -0.013314 0.009820
v 0.021704 -0.014197 0.009838
v 0.021707 -0.014190 0.009846
v 0.021918 -0.014327 0.009770
v 0.021915 -0.014336 0.009726
v 0.021916 -0.014332 0.009748
v 0.021685 -0.014242 0.009737
v 0.021250 -0.013998 0.009748
v 0.020385 -0.013135 0.009724
v 0.020150 -0.012698 0.009724
v 0.020688 -0.013523 0.009736
v 0.020531 -0.013334 0.009747
v 0.020262 -0.012920 0.009747
v 0.021921 -0.014318 0.009791
v 0.021692 -0.014226 0.009791
v 0.020544 -0.013325 0.009790
v 0.020276 -0.012912 0.009790
v 0.021272 -0.013965 0.009829
v 0.020890 -0.013665 0.009829
v 0.022639 -0.014453 0.009810
v 0.022160 -0.014378 0.009811
v 0.021699 -0.014210 0.009820
v 0.021696 -0.014216 0.009811
v 0.021908 -0.014255 0.009860
v 0.022167 -0.014351 0.009846
v 0.020900 -0.013654 0.009846
v 0.021136 -0.013830 0.009860
v 0.021529 -0.014083 0.009860
v 0.021261 -0.013981 0.009801
v 0.020877 -0.013680 0.009801
v 0.020286 -0.012907 0.009810
v 0.020268 -0.012917 0.009769
v 0.020537 -0.013330 0.009769
v 0.020867 -0.013690 0.009769
v 0.021254 -0.013992 0.009769
v 0.021688 -0.014234 0.009770
v 0.021920 -0.014323 0.009780
v 0.022157 -0.014389 0.009791
v 0.023117 -0.014483 0.009790
v 0.022639 -0.014446 0.009820
v 0.022640 -0.014439 0.009829
v 0.023117 -0.014442 0.009845
v 0.022642 -0.014424 0.009845
v 0.022153 -0.014403 0.009748
v 0.022636 -0.014476 0.009758
v 0.022637 -0.014469 0.009780
v 0.022298 -0.014363 0.009860
v 0.022813 -0.014418 0.009860
v 0.041297 -0.013574 0.010443
v 0.042106 -0.013253 0.010455
v 0.022603 -0.013574 0.010443
v 0.041467 -0.013999 -0.008949
v 0.020227 -0.008900 -0.012800
v 0.020227 0.012600 0.012900
v 0.020227 -0.012936 0.009356
v 0.020227 -0.012936 -0.008156
v 0.020227 0.012600 -0.012800
v 0.020227 -0.008800 0.012900
vn -0.5753 -0.8105 0.1104
vn -0.5757 -0.8095 0.1153
vn -0.5764 -0.8091 0.1147
vn -0.5751 -0.8132 0.0886
vn 1.0000 0.0007 0.0000
vn 1.0000 0.0016 0.0000
vn 1.0000 0.0007 0.0024
vn 1.0000 0.0007 -0.0023
vn -0.4018 -0.7246 0.5599
vn -0.3988 -0.7298 0.5553
vn -0.4019 -0.7250 0.5594
vn -0.3949 -0.7276 0.5608
vn -0.4062 -0.7181 0.5652
vn -0.7366 -0.4443 0.5100
vn -0.7262 -0.4722 0.4997
vn -0.8220 -0.3500 0.4493
vn 0.5709 -0.7598 -0.3110
vn 0.6078 -0.7562 0.2424
vn 0.6099 -0.7548 0.2415
vn 0.2949 -0.9449 0.1422
vn 0.2834 -0.9459 0.1580
vn 0.2798 -0.9480 0.1518
vn -0.5874 -0.7534 -0.2955
vn -0.5867 -0.7533 -0.2973
vn -0.5758 -0.7647 -0.2893
vn -0.5898 -0.7579 -0.2788
vn -0.5907 -0.7513 -0.2942
vn -0.5876 -0.7531 -0.2960
vn -0.5789 -0.8066 -0.1192
vn -0.5802 -0.8059 -0.1177
vn -0.5799 -0.8062 -0.1172
vn -0.5805 -0.8057 -0.1177
vn -0.6856 -0.4440 0.5769
vn 0.2709 -0.7270 0.6309
vn 0.2669 -0.7334 0.6251
vn 0.2559 -0.7326 0.6307
vn 0.2567 -0.7399 0.6219
vn 0.2496 -0.7455 0.6180
vn 0.2588 -0.7339 0.6281
vn 0.4775 -0.8582 -0.1883
vn -0.8529 -0.3827 -0.3551
vn -0.9253 -0.2752 -0.2608
vn -0.1251 -0.8014 -0.5849
vn -0.1273 -0.7991 -0.5875
vn -0.1595 -0.7940 -0.5866
vn -0.0964 -0.7964 -0.5971
vn -0.1011 -0.8078 -0.5807
vn -0.8721 -0.3880 0.2981
vn -0.8658 -0.4066 0.2917
vn -0.6629 -0.6060 -0.4397
vn -0.6567 -0.6163 -0.4348
vn -0.6760 -0.6065 -0.4187
vn -0.6517 -0.6001 0.4640
vn -0.6314 -0.6023 0.4885
vn -0.6012 -0.5539 0.5759
vn 0.6267 -0.7792 0.0000
vn 0.6261 -0.7798 -0.0015
vn -0.6273 -0.7608 0.1662
vn -0.6270 -0.7610 0.1667
vn -0.4780 -0.8584 -0.1863
vn -0.4765 -0.8587 -0.1887
vn -0.4639 -0.8699 -0.1674
vn -0.1169 -0.9379 0.3267
vn -0.1445 -0.9309 0.3354
vn -0.1480 -0.9418 0.3019
vn -0.1580 -0.9393 0.3046
vn -0.1537 -0.9430 0.2953
vn -0.1201 -0.9495 0.2897
vn 0.0000 -1.0000 0.0000
vn -0.8167 -0.4984 0.2908
vn -0.8072 -0.5031 0.3085
vn -0.7830 -0.5385 0.3114
vn -0.8018 -0.5113 0.3094
vn 0.0004 -0.6017 -0.7987
vn 0.0001 -0.6003 -0.7998
vn -0.0004 -0.6003 -0.7998
vn -0.0002 -0.6000 -0.8000
vn 0.0007 -0.5871 -0.8095
vn 0.0107 -0.5928 -0.8053
vn 0.0008 -0.5969 -0.8023
vn -0.7898 -0.5423 -0.2865
vn -0.7894 -0.5469 -0.2788
vn -0.6882 -0.7001 0.1901
vn -0.6881 -0.7000 0.1910
vn -0.2149 -0.9766 -0.0000
vn -0.4631 -0.8328 -0.3032
vn -0.4624 -0.8344 -0.2998
vn -0.4703 -0.8301 -0.2997
vn -0.4730 -0.8305 -0.2943
vn 0.6132 -0.7845 -0.0923
vn 0.6134 -0.7843 -0.0924
vn 0.1324 -0.9763 0.1715
vn 0.1365 -0.9801 0.1438
vn 0.1478 -0.9406 0.3055
vn 0.1316 -0.9431 0.3055
vn 0.1523 -0.9433 0.2949
vn 0.1748 -0.9339 0.3120
vn -1.0000 0.0029 0.0000
vn -1.0000 0.0023 0.0008
vn 0.2148 -0.9767 0.0000
vn -0.5818 -0.8134 -0.0000
vn -0.5811 -0.8138 -0.0005
vn -0.1323 -0.9761 -0.1725
vn -0.1449 -0.9758 -0.1641
vn -0.2115 -0.9724 -0.0984
vn -0.2127 -0.9707 -0.1118
vn -0.2122 -0.9708 -0.1119
vn -0.2004 -0.9745 -0.1013
vn -0.1927 -0.9776 -0.0841
vn 0.4643 -0.8349 -0.2954
vn 0.4647 -0.8339 -0.2978
vn 0.4664 -0.8341 -0.2944
vn 0.5200 -0.7157 -0.4662
vn 0.2127 -0.9707 0.1114
vn 0.2124 -0.9708 0.1115
vn 0.2675 -0.7677 -0.5823
vn 0.2810 -0.7626 -0.5826
vn 0.2778 -0.7701 -0.5742
vn 0.2517 -0.7851 -0.5659
vn -0.7498 -0.4840 -0.4513
vn -0.7579 -0.4796 -0.4421
vn -0.1192 -0.9377 -0.3265
vn -0.1442 -0.9278 -0.3440
vn -0.1382 -0.9441 -0.2992
vn -0.1523 -0.9427 -0.2968
vn -0.1533 -0.9352 -0.3191
vn -0.1475 -0.9405 -0.3061
vn -0.4771 -0.8355 0.2728
vn -0.4650 -0.8410 0.2767
vn -0.4627 -0.8402 0.2827
vn -0.4664 -0.8397 0.2781
vn -0.2566 -0.7396 0.6222
vn -0.2501 -0.7391 0.6254
vn -0.2549 -0.7383 0.6244
vn -0.2571 -0.7396 0.6221
vn -0.5903 -0.7501 0.2982
vn -0.5896 -0.7531 0.2919
vn -0.5911 -0.7526 0.2901
vn -0.8888 -0.4583 0.0000
vn -0.8895 -0.4569 0.0002
vn -0.8889 -0.4580 0.0000
vn 0.4708 -0.8640 0.1786
vn 0.4938 -0.8506 0.1806
vn 0.4802 -0.8571 0.1867
vn 0.4801 -0.8571 0.1865
vn -0.9494 -0.3140 0.0001
vn 0.9397 -0.3420 0.0000
vn 0.8660 -0.5000 0.0000
vn 0.7660 -0.6428 0.0000
vn 0.7071 -0.7071 0.0000
vn 0.8910 0.4540 0.0000
vn 0.8910 0.4539 0.0000
vn 0.7838 0.6211 0.0000
vn 0.7872 0.6167 0.0000
vn 0.9726 0.2327 0.0000
vn 0.9725 0.2327 0.0000
vn 0.9510 0.3091 0.0000
vn 0.9511 0.3090 -0.0000
vn 0.2849 -0.3088 0.9075
vn 0.3254 -0.3903 0.8613
vn 0.2976 -0.4472 0.8435
vn 0.3494 -0.6007 0.7191
vn 0.4488 -0.5560 0.6996
vn 0.9962 -0.0873 0.0000
vn 0.9848 -0.1737 0.0000
vn 0.1177 0.9931 0.0000
vn 0.1185 0.9930 0.0000
vn 0.3090 0.9511 0.0000
vn 0.4540 0.8910 0.0000
vn 0.6188 0.7855 -0.0029
vn 0.6167 0.7872 0.0000
vn 0.0994 -0.9680 -0.2306
vn 0.0682 -0.9083 -0.4127
vn 0.2073 -0.8774 -0.4327
vn 0.2344 -0.9454 -0.2263
vn 0.3612 -0.5424 -0.7585
vn 0.3913 -0.6213 -0.6788
vn 0.3546 -0.6126 -0.7063
vn 0.4253 -0.6162 0.6629
vn 0.3631 -0.7434 0.5617
vn 0.3766 -0.7843 0.4930
vn 0.5035 -0.7187 0.4795
vn 0.4094 -0.8571 0.3126
vn 0.5017 -0.8047 0.3174
vn 0.3770 -0.8253 0.4204
vn 0.3082 -0.8716 0.3812
vn 0.2317 -0.9007 0.3674
vn -0.5962 -0.7742 0.2126
vn 0.3027 -0.8990 0.3165
vn 0.3353 -0.8980 0.2848
vn 0.3737 -0.8848 0.2783
vn -0.2332 -0.8709 -0.4326
vn -0.3067 -0.8745 -0.3758
vn -0.3012 -0.8088 -0.5052
vn -0.2175 -0.8725 -0.4375
vn -0.4051 -0.5730 0.7125
vn -0.2973 -0.5250 0.7975
vn -0.4175 -0.5878 0.6929
vn -0.8655 -0.4744 -0.1606
vn -0.8605 -0.4626 -0.2137
vn -0.8418 -0.5257 -0.1227
vn -0.3200 -0.8941 0.3132
vn -0.3079 -0.9343 0.1796
vn -0.2472 -0.9581 0.1444
vn -0.3000 -0.9082 0.2918
vn -0.7385 -0.5735 0.3545
vn -0.7649 -0.4978 0.4088
vn -0.7319 -0.5734 0.3680
vn -0.3202 -0.9309 -0.1760
vn -0.3266 -0.9281 -0.1787
vn -0.3180 -0.9044 -0.2845
vn -0.2879 -0.9295 -0.2303
vn -0.0437 -0.9227 -0.3830
vn 0.0816 -0.9810 -0.1762
vn 0.2433 -0.9591 -0.1445
vn 0.1607 -0.4513 0.8778
vn 0.1244 -0.3880 0.9132
vn 0.0333 -0.4401 0.8973
vn 0.0369 -0.4822 0.8753
vn 0.0664 -0.5149 0.8547
vn 0.2253 -0.4841 -0.8455
vn 0.1812 -0.4769 -0.8601
vn 0.1387 -0.2083 -0.9682
vn 0.2460 -0.2760 -0.9291
vn 0.0000 0.0000 1.0000
vn -0.0001 -0.0007 1.0000
vn 0.1242 -0.1827 0.9753
vn 0.2365 -0.1784 0.9551
vn -0.1231 -0.6718 0.7304
vn -0.0514 -0.8136 0.5791
vn -0.0423 -0.7783 0.6265
vn -0.0024 -0.7664 0.6424
vn 0.0902 -0.9222 0.3761
vn 0.4864 -0.7719 0.4094
vn -0.4911 -0.5328 0.6892
vn -0.0773 -0.4790 0.8744
vn 0.9689 -0.0851 -0.2323
vn 0.7894 -0.1933 -0.5826
vn 0.9542 -0.1005 -0.2818
vn 0.4532 -0.8321 0.3198
vn 0.3699 -0.7985 -0.4750
vn 0.3514 -0.7684 -0.5348
vn 0.4233 -0.7473 -0.5122
vn 0.4347 -0.7848 -0.4418
vn 0.3657 -0.8489 -0.3817
vn 0.8259 -0.2419 0.5092
vn 0.6192 -0.3083 0.7221
vn 0.4934 -0.3227 0.8077
vn 0.6820 -0.2948 0.6693
vn 0.0776 -0.8331 0.5477
vn 0.0580 -0.7935 0.6059
vn -0.0641 -0.7911 0.6084
vn -0.0694 -0.8054 0.5886
vn -0.0040 -0.9457 0.3251
vn 0.0007 -0.9448 0.3278
vn 0.3422 -0.7265 -0.5959
vn 0.0244 -0.7250 0.6883
vn 0.1274 -0.6802 0.7219
vn -0.0743 -0.5170 0.8527
vn -0.0002 -0.7673 0.6413
vn 0.3264 -0.6054 -0.7259
vn 0.2878 -0.5972 -0.7487
vn 0.3240 -0.9161 -0.2363
vn 0.0130 -0.9797 -0.2000
vn 0.0014 -0.9761 -0.2174
vn -0.5269 -0.5647 0.6353
vn 0.8787 -0.2102 0.4287
vn 0.9731 -0.1090 0.2027
vn -0.0668 -0.5969 -0.7995
vn 0.0016 -0.8658 -0.5004
vn -0.0363 -0.7548 -0.6550
vn -0.0288 -0.7943 -0.6069
vn -0.5438 -0.5001 0.6739
vn -0.4053 -0.8955 0.1837
vn -0.3121 -0.9384 0.1485
vn -0.2980 -0.9416 0.1567
vn -0.3760 -0.8653 0.3316
vn -0.0786 -0.9806 0.1797
vn -0.1931 -0.9716 0.1367
vn 0.4613 -0.6577 -0.5956
vn 0.1830 -0.1367 -0.9736
vn 0.2657 -0.2489 -0.9314
vn 0.1942 -0.8582 0.4752
vn 0.1474 -0.7972 0.5854
vn 0.3379 -0.9079 -0.2480
vn 0.2903 -0.8474 -0.4446
vn 0.2888 -0.8467 0.4468
vn -0.0339 -0.8701 -0.4917
vn -0.3813 -0.8310 0.4050
vn -0.3275 -0.8451 0.4225
vn -0.3015 -0.8440 0.4437
vn -0.9768 0.2072 0.0546
vn -0.2219 -0.5284 0.8195
vn -0.3013 -0.6055 0.7366
vn -0.2990 -0.6595 0.6897
vn 0.6209 -0.7774 0.1004
vn -0.4972 -0.7509 -0.4346
vn -0.5451 -0.7077 -0.4496
vn -0.5452 -0.6275 -0.5558
vn -0.4780 -0.7155 -0.5095
vn 0.1374 -0.5192 -0.8436
vn 0.2020 -0.5063 -0.8383
vn 0.1412 -0.6023 -0.7857
vn 0.1257 -0.5380 -0.8335
vn -0.1648 -0.8443 0.5099
vn -0.1646 -0.6367 0.7534
vn -0.7725 0.6151 -0.1578
vn -0.9204 -0.1627 -0.3555
vn -0.3301 -0.7115 -0.6203
vn -0.2977 -0.6714 -0.6786
vn -0.2329 -0.6938 -0.6815
vn -0.2162 -0.6855 -0.6953
vn -0.2627 -0.7227 -0.6394
vn 0.2447 -0.7936 0.5572
vn 0.0648 -0.8568 -0.5116
vn 0.3135 -0.3078 0.8983
vn 0.2555 -0.3685 0.8938
vn 0.2812 -0.3527 0.8925
vn 0.1862 -0.8062 -0.5616
vn -0.2494 -0.8667 0.4320
vn -0.3639 -0.8067 -0.4657
vn -0.8765 -0.4550 -0.1575
vn -0.8722 -0.4750 -0.1164
vn -0.4119 -0.6240 -0.6640
vn -0.1797 -0.6340 -0.7522
vn -0.6968 -0.6511 -0.3009
vn -0.6803 -0.6659 -0.3061
vn -0.6776 -0.6643 -0.3155
vn -0.0275 -0.9750 0.2206
vn -0.0055 -1.0000 0.0074
vn -0.0434 -0.9975 0.0559
vn -0.7735 -0.6103 -0.1707
vn -0.7497 -0.6338 -0.1904
vn -0.7008 -0.6870 -0.1918
vn -0.7422 -0.6466 -0.1761
vn -0.6182 -0.5645 -0.5469
vn 0.0653 -0.9697 0.2354
vn -0.0546 -0.9622 0.2666
vn 0.1562 -0.7127 -0.6839
vn 0.1136 -0.7056 -0.6994
vn 0.5597 -0.2436 -0.7920
vn 0.7315 -0.2112 -0.6483
vn 0.2268 -0.3834 0.8953
vn 0.2367 -0.4402 0.8662
vn 0.0006 1.0000 0.0000
vn 0.0004 1.0000 0.0002
vn 0.1935 -0.5256 0.8284
vn -0.4204 -0.6550 -0.6279
vn -0.6683 -0.7223 -0.1778
vn -0.6694 -0.7210 -0.1789
vn 0.0745 -0.7793 -0.6222
vn -0.8220 -0.5512 0.1433
vn -0.8352 -0.5274 0.1557
vn -0.8644 -0.4913 0.1068
vn -0.8702 -0.4822 -0.1009
vn -0.8163 -0.5576 -0.1509
vn -0.3551 -0.9163 -0.1855
vn -0.3430 -0.8896 -0.3015
vn -0.7103 -0.6144 0.3434
vn -0.8479 -0.4550 -0.2720
vn -0.8372 -0.4655 -0.2871
vn -0.8475 -0.4557 -0.2721
vn 0.1291 -0.6072 0.7840
vn -0.4770 -0.8588 0.1868
vn -0.9000 -0.4081 -0.1533
vn -0.0002 -0.8729 -0.4880
vn -0.5133 -0.7262 0.4573
vn -0.5099 -0.7672 0.3890
vn 0.2742 -0.5737 0.7718
vn -0.5833 -0.7881 -0.1967
vn -0.5806 -0.7901 -0.1965
vn -0.5815 -0.7905 -0.1923
vn -0.0000 0.0000 -1.0000
vn -0.0002 -0.0023 -1.0000
vn -0.0000 0.0010 -1.0000
vn -0.5534 -0.7247 0.4105
vn -0.5380 -0.6918 0.4816
vn -0.7744 -0.6067 0.1796
vn -0.7804 -0.6004 0.1747
vn 0.3878 -0.2540 -0.8861
vn 0.5027 -0.2494 -0.8277
vn 0.9845 -0.0865 0.1528
vn 0.3669 -0.9113 0.1870
usemtl g1_black.010
s off
f 169//1 46//2 47//3 179//4
f 9//5 7//6 23//7 36//8 8//5 3//5
f 193//9 173//9 199//10 189//11 200//12 186//13
f 187//14 172//15 202//15 188//15
f 203//16 188//16 202//16 229//16 181//16
f 88//17 71//17 11//17
f 2//18 159//19 156//18 154//18
f 153//20 50//21 152//22
f 112//23 116//24 124//25 120//26 115//27 111//28
f 52//29 112//30 111//31 114//30 54//32
f 202//33 172//33 229//33
f 147//34 140//35 148//36 136//37 167//38 137//39
f 57//40 89//40 88//40
f 131//41 92//41 224//41
f 92//42 127//42 224//42
f 135//43 101//44 97//45 98//46 94//47
f 184//48 203//49 181//49
f 124//50 113//50 125//50 123//51 106//52
f 182//53 205//53 201//53 172//53 187//54
f 201//55 190//55 172//55
f 57//56 11//56 2//56 51//57 50//56
f 205//58 46//59 169//58
f 54//60 114//61 115//62 110//60
f 171//63 215//64 170//65 216//66 217//67 209//68
f 55//69 56//69 49//69 48//69
f 180//70 203//70 184//71
f 183//72 204//72 180//73
f 224//74 16//75 223//76 84//77 102//78 100//79 135//80
f 126//81 129//82 125//82
f 205//83 182//83 46//84
f 48//85 47//85 54//85 55//85
f 115//86 120//87 122//88 119//89 110//86
f 11//90 57//91 88//91
f 49//92 164//92 165//93
f 164//94 153//94 139//95 166//96 165//97
f 225//98 228//98 224//99 127//98 181//98 229//98
f 49//100 56//100 57//100 50//100
f 47//101 46//102 52//101 54//101
f 55//103 91//103 132//104
f 91//105 55//106 54//107 109//108 108//109
f 71//110 88//111 89//111 82//112
f 71//113 76//113 11//113
f 49//114 50//114 153//114 164//115
f 75//116 74//116 80//117 79//118 67//119
f 129//120 131//120 224//120 123//121 125//120
f 108//122 118//123 95//124 133//125 132//126 91//127
f 207//128 206//129 179//130 178//131
f 195//132 173//132 193//133 194//134 185//132 192//132 196//135
f 169//136 179//137 206//138 205//137
f 226//139 227//139 53//139 52//140 46//141
f 156//142 158//143 50//144 51//145 154//145
f 227//146 226//146 181//146 127//146
s 1
f 14//147 5//147 4//148 13//148
f 12//149 1//149 2//150 11//150
f 38//151 26//152 25//153 41//154
f 36//155 23//156 22//157 37//158
f 37//158 22//157 26//152 38//151
f 2//159 63//160 221//161 150//162 149//163
f 9//164 3//164 6//165 15//165
f 19//166 40//167 35//168 20//168
f 20//168 35//168 34//169 21//169
f 13//148 4//148 1//149 12//149
f 21//169 34//169 39//170 24//171
f 86//172 87//173 66//174 85//175
f 10//176 77//177 81//178
f 151//179 150//162 148//180 145//181 146//182
f 157//183 163//184 162//185 161//186 139//187 155//188 153//189 152//190 158//191
f 95//192 121//193 96//194 98//195
f 189//196 199//197 198//198
f 130//199 131//200 129//201
f 175//202 177//203 215//204 171//205
f 187//206 188//207 203//207 180//207 204//208
f 109//209 54//210 117//211 118//212
f 133//213 87//173 86//172
f 56//214 86//172 85//175 57//215
f 59//216 32//217 31//218 58//219 220//220
f 10//176 65//221 18//222 17//223 11//224
f 15//165 6//165 5//147 14//147
f 44//225 8//226 36//225 37//225 38//225 41//225 39//225 34//225 35//225 40//225 225//225 229//225 31//225 32//225 33//227 42//228 43//225 45//225
f 218//229 212//230 214//231 219//232
f 162//185 160//233 159//234 146//182 145//181
f 197//235 198//198 229//236
f 7//237 9//237 15//238 29//239
f 158//191 156//240 159//234 160//233 157//183
f 70//241 72//242 76//243 71//244 82//245
f 45//246 43//247 4//248 5//249
f 138//250 144//251 211//252 191//253 210//254 141//255
f 75//256 81//178 77//177 76//243 72//242
f 143//257 168//258 220//220 58//219 222//259 218//229 219//232 213//260
f 67//261 68//262 81//178 75//256
f 57//215 85//175 69//263
f 229//236 222//259 58//219 31//218
f 132//264 133//213 86//172 56//214 55//265
f 190//266 198//198 197//235
f 6//267 44//268 45//246 5//249
f 135//269 100//270 99//271 101//272
f 190//266 197//235 229//236 172//273
f 178//274 47//275 176//276 177//203 175//202 207//277
f 47//275 48//278 170//279 215//204 177//203 176//276
f 77//177 10//176 11//280 76//243
f 30//281 12//282 11//224 17//223
f 149//163 151//179 146//182 2//159
f 142//283 147//284 144//251 138//250
f 89//285 69//263 85//175 66//174 83//286 82//245
f 142//283 139//187 161//186 140//287
f 95//192 98//195 97//288 133//213
f 186//289 207//277 175//202 208//290 185//291 194//292
f 195//293 174//294 199//197 173//295
f 2//296 154//296 51//296
f 120//297 124//298 106//299 104//300
f 16//301 18//222 65//221 79//302 78//303 223//304
f 192//305 191//253 211//252 212//230 218//229 196//306
f 186//289 194//292 193//307
f 103//308 105//309 93//310 134//311 94//312 98//313 96//194
f 140//314 147//284 142//283
f 97//288 73//315 87//173 133//213
f 63//160 2//159 1//316 42//228 33//227 62//317 64//318
f 72//242 70//241 83//286 66//174 74//319 75//256
f 175//202 171//205 209//320 208//290
f 209//320 192//305 185//291 208//290
f 122//321 103//308 96//194
f 103//308 122//321 105//309
f 122//321 120//297 104//300
f 130//199 128//322 92//323 131//200
f 94//312 134//311 224//324 135//325
f 124//326 116//327 113//328
f 79//302 81//178 68//262 67//261
f 49//329 165//330 216//331 48//278
f 126//332 125//333 113//334 52//335
f 106//299 123//336 224//324
f 165//330 166//337 141//255 210//254 217//338 216//331
f 80//339 90//340 78//303 79//302
f 15//238 14//341 27//342 29//239
f 62//317 61//343 60//344 221//161 63//160 64//318
f 62//317 33//227 32//217 59//216 60//344 61//343
f 225//345 40//167 19//166 228//346
f 139//187 142//283 138//250 166//337
f 25//153 24//171 39//170 41//154
f 220//220 168//258 167//347 59//216
f 107//348 224//324 93//310 105//309
f 52//335 113//334 116//349 112//350
f 74//319 73//315 84//351 90//340 80//339
f 46//352 180//353 181//354 226//354
f 227//355 127//355 92//323 128//322 130//199 129//201 53//356
f 110//357 119//358 117//211 54//210
f 204//208 183//359 182//359 187//206
f 162//185 145//181 148//180 140//287 161//186
f 180//360 184//361 181//362
f 217//338 210//254 191//253
f 90//340 84//351 223//304 78//303
f 2//159 146//182 159//234
f 143//257 144//251 168//258
f 144//251 137//363 168//258
f 179//364 47//275 178//274
f 107//348 105//309 122//321 104//300
f 65//221 10//176 81//178 79//302
f 108//365 109//209 118//212
f 167//347 168//258 137//363
f 101//272 99//271 100//270 102//366 84//351 73//315 97//288
f 222//259 229//236 195//293 196//306 218//229
f 117//211 121//193 95//192 118//212
f 117//211 119//358 122//321 96//194 121//193
f 191//253 192//305 209//320 217//338
f 207//277 186//289 200//367 206//368
f 147//284 137//363 144//251
f 148//180 150//162 136//369
f 70//241 82//245 83//286
f 114//370 111//371 115//372
f 126//332 52//335 53//356 129//201
f 93//310 224//324 134//311
f 66//174 87//173 73//315 74//319
f 25//373 26//373 22//373 23//373 7//374 29//373 27//373 28//373 30//281 17//223 18//373 16//373 224//375 228//373 19//373 20//373 21//373 24//373
f 166//337 138//250 141//255
f 150//162 151//179 149//163
f 170//279 48//278 216//331
f 221//161 60//344 59//216 167//347 136//369 150//162
f 205//376 206//368 200//367 201//377
f 182//378 183//379 180//353 46//352
f 27//342 14//341 13//380 28//381
f 6//267 3//382 8//382 44//268
f 89//285 57//215 69//263
f 107//348 104//300 106//299 224//324
f 153//189 155//188 139//187
f 213//260 219//232 214//231 212//230 211//252 144//251 143//257
f 28//381 13//380 12//282 30//281
f 160//233 162//185 163//184
f 160//233 163//184 157//183
f 198//198 199//197 174//294 195//293 229//236
f 50//383 158//191 152//190
f 43//247 42//228 1//316 4//248
f 190//266 201//377 200//367 189//196 198//198
