# Blender v3.0.1 OBJ File: ''
# www.blender.org
mtllib right_hip_yaw_link.mtl
o left_hip_yaw_link.002
v 0.049787 0.011916 -0.013600
v 0.008785 0.028857 -0.120439
v 0.005158 0.023580 -0.138214
v 0.013014 0.024465 -0.122287
v 0.023800 0.025903 -0.096362
v 0.027470 0.029948 -0.077387
v 0.017474 0.030072 -0.099412
v 0.001049 0.025703 -0.141762
v 0.024279 0.032374 -0.076299
v 0.042277 0.029515 -0.029957
v 0.038897 0.027022 -0.049836
v 0.044045 0.029989 -0.020961
v 0.034524 0.026102 -0.067479
v 0.033205 0.024245 -0.073853
v 0.033728 0.027499 -0.067246
v 0.042202 -0.000529 -0.050642
v 0.047981 -0.016200 -0.020981
v 0.048184 -0.014503 -0.020981
v 0.048485 0.011035 -0.020966
v 0.032794 -0.013473 -0.079331
v 0.036170 -0.021504 -0.064860
v 0.043880 -0.021375 -0.035198
v 0.037683 -0.025649 -0.055185
v 0.034574 -0.024917 -0.067367
v 0.033451 0.000404 -0.079647
v 0.037523 0.013525 -0.065307
v 0.033282 0.008800 -0.079583
v 0.044804 -0.027738 -0.020990
v 0.036670 0.020491 -0.065085
v 0.041396 -0.014548 -0.050412
v 0.037233 -0.014584 -0.065170
v 0.033960 -0.026417 -0.067261
v 0.037874 -0.028962 -0.047062
v 0.034351 -0.028051 -0.062309
v 0.031106 -0.027366 -0.073798
v 0.025957 -0.033896 -0.062619
v 0.033674 -0.032230 -0.049169
v 0.040670 -0.033328 -0.020999
v 0.024311 -0.031907 -0.076186
v 0.030342 -0.031281 -0.063485
v 0.027199 -0.029749 -0.077172
v 0.012264 -0.024353 -0.123212
v 0.006635 -0.023636 -0.134963
v 0.004688 -0.027044 -0.132087
v 0.001138 -0.029825 -0.130454
v 0.019746 -0.029150 -0.096255
v 0.015943 -0.031752 -0.094480
v -0.001517 -0.022684 -0.150495
v -0.008191 -0.021931 -0.162108
v -0.038646 -0.035105 -0.160441
v -0.010812 -0.025576 -0.160768
v -0.015264 -0.021163 -0.173511
v -0.050718 -0.025397 -0.067928
v -0.052763 -0.020187 -0.062796
v -0.053066 -0.018980 -0.062560
v -0.051570 -0.023628 -0.065737
v -0.053569 -0.016661 -0.060886
v -0.054327 -0.011119 -0.059124
v -0.054172 -0.012598 -0.059481
v -0.054819 0.000052 -0.058052
v -0.053745 0.016696 -0.060165
v -0.054311 0.012492 -0.059059
v -0.054707 0.006855 -0.058341
v 0.025131 0.023011 -0.096879
v -0.003946 0.019563 -0.157588
v 0.005921 0.022183 -0.138558
v 0.016513 0.023421 -0.116668
v 0.006468 0.020666 -0.138781
v 0.017046 0.021904 -0.116878
v -0.052872 0.020639 -0.061941
v 0.017328 -0.012289 -0.119346
v 0.020182 -0.022405 -0.108578
v 0.007456 -0.020653 -0.136502
v 0.011172 -0.011663 -0.132532
v -0.002619 -0.010717 -0.158136
v -0.005645 -0.019100 -0.160432
v -0.010322 -0.010792 -0.170436
v -0.018409 -0.009291 -0.182447
v -0.019314 -0.017638 -0.181847
v -0.014092 -0.018177 -0.174058
v -0.019308 0.018049 -0.181940
v -0.010908 0.015867 -0.170183
v -0.017645 0.018205 -0.179481
v 0.003965 0.016289 -0.145272
v 0.022556 0.018324 -0.105793
v 0.016856 0.017760 -0.119171
v 0.010647 0.017006 -0.132342
v -0.018411 0.009786 -0.182493
v -0.010326 0.010999 -0.170468
v -0.002624 0.010987 -0.158160
v -0.018100 0.000258 -0.182668
v -0.002146 0.000135 -0.158360
v 0.017909 -0.000031 -0.119646
v 0.017462 0.012228 -0.119452
v 0.002863 -0.021678 -0.144083
v -0.022426 -0.020482 -0.184235
v -0.034632 -0.031215 -0.184480
v -0.035818 -0.034028 -0.170460
v -0.035332 -0.033571 -0.173671
v -0.034784 -0.032397 -0.180039
v -0.028768 0.017233 -0.194601
v -0.029877 -0.016650 -0.195963
v -0.027782 -0.020044 -0.191714
v -0.036542 -0.033556 -0.173357
v -0.036884 -0.034038 -0.169968
v -0.036928 -0.034069 -0.169740
v -0.037205 -0.034222 -0.168490
v -0.037601 -0.034380 -0.166909
v -0.031590 -0.016938 -0.197961
v -0.032068 -0.019676 -0.197285
v -0.031887 0.020099 -0.197319
v -0.032783 -0.022145 -0.196290
v -0.032305 -0.020479 -0.197007
v -0.032032 0.020901 -0.197056
v -0.032381 0.023220 -0.196050
v -0.032671 0.028249 -0.191877
v -0.032681 0.026267 -0.194026
v -0.032518 0.024379 -0.195392
v -0.032616 0.029200 -0.190502
v 0.035448 0.032555 -0.045640
v 0.031570 0.031535 -0.061521
v 0.027337 0.034376 -0.060454
v 0.040509 0.034100 -0.021652
v 0.036132 0.037171 -0.021475
v -0.052224 -0.021919 -0.064083
v 0.008227 -0.043285 -0.000527
v 0.051827 -0.014054 -0.000511
v 0.049439 -0.025964 -0.000517
v 0.035728 -0.039728 -0.000525
v 0.050925 -0.020388 -0.000514
v 0.031571 -0.040986 -0.000525
v 0.028129 -0.041715 -0.000526
v 0.042913 -0.035744 -0.000522
v 0.042088 -0.036390 -0.000523
v 0.048616 -0.028045 -0.000518
v 0.047646 -0.030000 -0.000519
v 0.046719 -0.031521 -0.000520
v 0.040181 -0.037651 -0.000523
v 0.038069 -0.038758 -0.000524
v 0.045481 -0.033184 -0.000521
v 0.044098 -0.034681 -0.000522
v 0.050635 0.021864 -0.000493
v 0.051257 0.018478 -0.000494
v 0.014685 0.043660 -0.000483
v 0.029981 0.041983 -0.000483
v 0.047535 0.030612 -0.000488
v 0.052149 0.009326 -0.000499
v 0.034997 0.040620 -0.000484
v 0.048980 0.027496 -0.000490
v 0.049859 0.024910 -0.000491
v 0.037304 0.039726 -0.000484
v 0.040133 0.038284 -0.000485
v 0.041857 0.037144 -0.000485
v 0.043931 0.035389 -0.000486
v 0.045345 0.033855 -0.000487
v 0.046599 0.032161 -0.000487
v 0.036896 -0.037345 -0.013523
v 0.046923 0.027807 -0.011316
v 0.047801 0.025404 -0.011489
v 0.042897 0.034215 -0.010532
v 0.039041 0.037408 -0.009785
v -0.024660 0.042039 -0.000485
v -0.051457 0.000035 -0.000507
v -0.013110 0.043256 -0.000484
v -0.050573 0.016291 -0.000499
v -0.050184 0.018793 -0.000498
v -0.036613 0.038771 -0.000487
v -0.049031 0.023803 -0.000495
v -0.047343 0.028315 -0.000493
v -0.046004 0.030775 -0.000491
v -0.045256 0.031890 -0.000491
v -0.043506 0.034002 -0.000490
v -0.034010 0.039809 -0.000486
v -0.031108 0.040701 -0.000486
v -0.041049 0.036181 -0.000488
v -0.039235 0.037401 -0.000488
v -0.030715 -0.040492 -0.000527
v -0.018757 -0.042435 -0.000528
v -0.048608 -0.024477 -0.000520
v -0.047576 -0.027222 -0.000521
v -0.049812 -0.019870 -0.000517
v -0.050641 -0.014767 -0.000515
v -0.035400 -0.038971 -0.000527
v -0.038245 -0.037633 -0.000526
v -0.040024 -0.036555 -0.000526
v -0.041663 -0.035331 -0.000525
v -0.043161 -0.033954 -0.000524
v -0.043987 -0.033058 -0.000524
v -0.045341 -0.031303 -0.000523
v -0.046532 -0.029365 -0.000522
v -0.041750 -0.035234 -0.140650
v -0.032313 0.017386 -0.198824
v -0.032880 0.024378 -0.195333
v -0.045881 0.034010 -0.115185
v -0.032145 0.009298 -0.199860
v -0.032147 -0.008813 -0.199848
v -0.032936 -0.023810 -0.194984
v -0.035521 -0.032556 -0.179053
v -0.041765 -0.035223 -0.140561
v -0.034949 0.036112 -0.182577
v -0.033102 0.026260 -0.193960
v -0.032144 -0.008455 -0.199866
v -0.043534 0.035340 -0.129655
v -0.043149 0.035461 -0.132027
v -0.042143 -0.034614 -0.138232
v -0.034504 -0.030859 -0.185320
v -0.032089 0.000253 -0.200208
v -0.033745 -0.028222 -0.190001
v -0.032286 -0.016020 -0.198993
v -0.033598 -0.027597 -0.190906
v -0.032297 -0.016219 -0.198922
v -0.045684 0.034221 -0.116404
v -0.037449 0.036094 -0.167169
v -0.033385 -0.026583 -0.192220
v -0.040411 -0.035409 -0.148905
v -0.040140 -0.035389 -0.150579
v -0.032321 0.017588 -0.198779
v -0.046028 0.033701 -0.114280
v -0.041424 -0.035342 -0.142660
vn -0.9820 -0.0036 -0.1887
vn -0.9821 -0.0039 -0.1882
vn -0.9821 -0.0040 -0.1884
vn -0.9821 -0.0036 -0.1884
vn 0.3425 -0.9291 -0.1396
vn -0.1156 0.9930 -0.0258
vn -0.8929 -0.4493 0.0295
vn -0.8928 -0.4495 0.0297
vn -0.9671 -0.2501 0.0468
vn -0.9671 -0.2501 0.0471
vn -0.9670 -0.2503 0.0474
vn -0.1342 -0.9821 -0.1320
vn -0.1342 -0.9822 -0.1318
vn -0.1343 -0.9822 -0.1312
vn -0.9590 -0.2385 -0.1530
vn -0.9591 -0.2381 -0.1529
vn 0.2602 0.9576 -0.1237
vn -0.3029 -0.9378 -0.1696
vn -0.7510 -0.6603 0.0021
vn -0.7699 0.6379 0.0160
vn -0.7724 -0.6352 -0.0024
vn 0.5456 0.3490 -0.7619
vn 0.5461 0.3486 -0.7618
vn 0.8276 -0.5251 -0.1981
vn 0.9622 0.1738 -0.2098
vn -0.0145 0.9992 -0.0375
vn 0.7581 -0.4829 -0.4383
vn 0.6990 -0.5621 -0.4422
vn 0.7134 -0.5251 -0.4640
vn 0.7143 -0.5211 -0.4672
vn 0.7219 -0.4805 -0.4980
vn 0.7321 -0.3805 -0.5651
vn 0.7926 -0.2609 -0.5510
vn 0.8016 -0.2694 -0.5338
vn 0.8178 -0.2788 -0.5035
vn 0.3916 -0.8959 -0.2096
vn 0.1186 -0.9660 -0.2297
vn -0.4440 -0.8085 -0.3862
vn 0.0616 -0.9954 -0.0735
vn 0.0712 -0.9890 -0.1296
vn 0.1530 -0.9830 -0.1017
vn 0.0347 -0.9975 -0.0617
vn -0.9852 0.0723 -0.1557
vn -0.7757 0.6213 -0.1107
vn -0.2925 0.9562 -0.0119
vn -0.2252 0.9742 -0.0178
vn 0.5873 -0.7676 -0.2567
vn 0.5678 -0.7865 -0.2428
vn 0.5939 -0.7781 -0.2045
vn 0.9660 0.0019 -0.2587
vn 0.9469 -0.0037 -0.3214
vn 0.9433 0.0695 -0.3245
vn 0.9530 0.0722 -0.2943
vn 0.9790 -0.0136 -0.2035
vn 0.8724 0.3475 -0.3438
vn 0.8516 0.3369 -0.4015
vn 0.8294 0.4255 -0.3621
vn 0.8990 0.3553 -0.2560
vn 0.8851 0.3325 -0.3257
vn 0.9386 0.2795 -0.2024
vn 0.8905 0.3984 -0.2196
vn 0.8367 0.5123 -0.1934
vn 0.8396 0.5081 -0.1920
vn 0.8702 0.4604 -0.1753
vn 0.9400 0.2739 -0.2033
vn 0.5830 -0.7401 -0.3351
vn -0.4504 -0.7758 -0.4418
vn -0.4141 -0.7423 -0.5268
vn 0.5798 -0.7273 -0.3673
vn -0.2534 -0.0619 -0.9654
vn 0.7535 -0.1203 -0.6464
vn -0.2033 -0.0658 -0.9769
vn -0.9956 0.0901 -0.0277
vn -0.9984 0.0366 -0.0426
vn -0.9990 -0.0018 -0.0441
vn -0.9982 -0.0010 0.0598
vn -0.9931 0.1023 0.0570
vn -0.8546 0.5190 0.0163
vn -0.8303 0.5570 0.0148
vn -0.9109 0.4057 -0.0752
vn 0.3778 0.9159 -0.1354
vn 0.4977 0.8523 -0.1608
vn 0.4964 0.8532 -0.1599
vn 0.4223 0.8919 -0.1618
vn -0.9803 0.1909 0.0514
vn -0.9879 0.1533 -0.0246
vn -0.9524 -0.3039 -0.0257
vn -0.9572 -0.2874 -0.0350
vn -0.9821 -0.1521 -0.1108
vn -0.9851 -0.1178 -0.1256
vn -0.8927 -0.4419 -0.0890
vn -0.9420 -0.3276 -0.0727
vn -0.9413 -0.3341 -0.0472
vn 0.9378 -0.1970 -0.2858
vn 0.9031 -0.2854 -0.3207
vn 0.8675 -0.3464 -0.3569
vn 0.8520 -0.2956 -0.4321
vn 0.8948 -0.0996 -0.4352
vn 0.9189 -0.1064 -0.3797
vn 0.9309 -0.1126 -0.3476
vn 0.9432 -0.1157 -0.3115
vn 0.6988 0.6942 -0.1726
vn 0.6990 0.6939 -0.1727
vn 0.6482 0.7373 -0.1905
vn 0.5917 0.7883 -0.1688
vn 0.7787 0.3170 -0.5414
vn 0.7794 0.3245 -0.5359
vn 0.8432 0.1457 -0.5176
vn 0.8424 0.0630 -0.5352
vn 0.8079 0.0769 -0.5843
vn 0.7770 0.1597 -0.6089
vn 0.7698 0.5813 -0.2637
vn 0.1087 0.9916 -0.0707
vn -0.2916 0.3169 -0.9025
vn 0.7485 0.3716 -0.5493
vn -0.2556 0.1835 -0.9492
vn -0.7506 -0.6505 -0.1158
vn -0.2344 -0.9720 -0.0175
vn -0.3682 -0.9297 -0.0080
vn -0.8042 -0.5857 -0.1010
vn 0.6923 -0.6921 -0.2043
vn 0.7416 -0.6100 -0.2794
vn 0.8303 -0.4777 -0.2871
vn -0.8490 0.5210 -0.0883
vn -0.6654 0.7463 0.0139
vn -0.6117 0.7910 0.0110
vn -0.4714 -0.8819 -0.0033
vn 0.8075 -0.0795 -0.5845
vn 0.8107 -0.0003 -0.5854
vn 0.8628 0.0080 -0.5055
vn 0.8612 -0.0950 -0.4994
vn 0.8395 -0.0942 -0.5351
vn 0.9731 -0.1017 -0.2066
vn 0.9647 -0.1070 -0.2405
vn 0.9805 -0.0228 -0.1951
vn 0.9734 -0.0999 -0.2064
vn 0.7760 -0.1656 -0.6086
vn 0.7259 -0.2264 -0.6495
vn 0.9462 -0.2468 -0.2093
vn 0.9378 -0.2456 -0.2452
vn 0.7513 0.5704 -0.3321
vn 0.7120 0.5996 -0.3654
vn 0.6427 0.6714 -0.3691
vn -0.4417 0.7119 -0.5459
vn 0.5503 0.7856 -0.2830
vn 0.5188 0.8145 -0.2596
vn 0.6164 0.7530 -0.2305
vn -0.2049 0.4937 -0.8451
vn -0.7105 0.3219 -0.6258
vn -0.6953 0.4346 -0.5725
vn -0.1524 0.6495 -0.7450
vn 0.7280 -0.5505 -0.4085
vn 0.7319 -0.5972 -0.3282
vn -0.3764 -0.7088 -0.5966
vn -0.3411 -0.6630 -0.6664
vn 0.7796 0.4347 -0.4509
vn 0.6135 -0.7684 -0.1819
vn 0.6132 -0.7688 -0.1816
vn 0.5956 -0.7771 -0.2036
vn 0.6851 -0.7009 -0.1985
vn 0.7213 -0.6661 -0.1900
vn -0.9973 -0.0576 -0.0462
vn -0.9927 -0.1067 0.0560
vn 0.9138 0.0036 -0.4061
vn 0.9096 0.0655 -0.4102
vn 0.9555 -0.2151 -0.2021
vn 0.6395 0.7424 -0.2000
vn 0.5375 -0.8274 -0.1626
vn 0.5199 -0.8341 -0.1843
vn -0.9817 0.1610 -0.1015
vn -0.9447 0.3277 -0.0126
vn 0.9252 -0.3240 -0.1976
vn 0.9380 -0.2883 -0.1925
vn 0.9072 -0.3774 -0.1856
vn -0.9863 -0.1559 0.0532
vn -0.9942 -0.0969 -0.0473
vn -0.9897 -0.1271 -0.0655
vn -0.6385 -0.7696 -0.0005
vn -0.5586 -0.8295 -0.0009
vn 0.7176 0.5052 -0.4793
vn 0.7175 0.5051 -0.4796
vn 0.7209 0.5067 -0.4728
vn 0.7898 0.3575 -0.4985
vn 0.3801 -0.9081 -0.1760
vn 0.4384 -0.8776 -0.1936
vn 0.3800 -0.9081 -0.1760
vn -0.7048 -0.6771 -0.2116
vn -0.9876 -0.0020 -0.1573
vn -0.9876 -0.0017 -0.1569
vn -0.8200 0.5640 -0.0975
vn -0.2557 0.0594 -0.9649
vn -0.2465 -0.0025 -0.9691
vn -0.2920 -0.5457 -0.7855
vn -0.1660 -0.9858 -0.0240
vn -0.4983 -0.8609 -0.1026
vn -0.9308 0.3639 0.0332
vn -0.8766 0.4809 0.0179
vn -0.6767 -0.7362 -0.0001
vn 0.9313 -0.3247 0.1650
vn -0.6244 -0.7467 -0.2293
vn 0.1038 -0.9840 -0.1450
vn -0.0448 -0.9876 -0.1504
vn 0.9569 -0.2607 0.1282
vn 0.6958 -0.4761 -0.5377
vn 0.7344 -0.3674 -0.5707
vn -0.2155 -0.6199 -0.7545
vn 0.2302 -0.9642 -0.1318
vn -0.1298 0.7401 -0.6599
vn 0.5527 0.6848 -0.4749
vn 0.7155 0.5328 -0.4518
vn 0.6963 0.5844 -0.4167
vn 0.8607 0.0450 -0.5072
vn 0.8672 0.1324 -0.4801
vn 0.8866 0.1338 -0.4427
vn 0.9001 0.1452 -0.4109
vn 0.8827 -0.4379 -0.1709
vn -0.5079 0.8614 0.0046
vn -0.4113 0.9115 -0.0022
vn 0.9584 0.1868 -0.2157
vn 0.9506 0.1530 -0.2700
vn 0.8548 0.2822 -0.4354
vn -0.9343 -0.3545 0.0384
vn -0.9342 -0.3548 0.0383
vn 0.9115 0.1563 -0.3805
vn 0.0833 -0.4085 -0.9090
vn 0.0605 -0.4093 -0.9104
vn 0.6390 -0.2933 -0.7111
vn -0.0000 -0.0005 1.0000
vn -0.0003 -0.0004 1.0000
vn 0.0003 -0.0005 1.0000
vn -0.0008 -0.0009 1.0000
vn 0.0000 -0.0000 1.0000
vn 0.0003 -0.0012 1.0000
vn -0.0001 -0.0002 1.0000
vn -0.0002 -0.0002 1.0000
vn -0.0003 -0.0007 1.0000
vn -0.0003 -0.0009 1.0000
vn 0.0002 -0.0002 1.0000
vn -0.0001 -0.0010 1.0000
vn 0.3100 0.4172 -0.8543
vn -0.2372 0.4274 -0.8724
vn 0.8181 0.5523 -0.1606
vn 0.7806 0.5989 -0.1787
vn 0.3427 -0.3833 -0.8577
vn 0.2511 -0.9577 -0.1404
vn 0.5005 -0.8405 -0.2074
vn 0.4795 0.8555 -0.1955
vn 0.4228 0.8910 -0.1652
vn 0.6462 0.7387 -0.1917
vn 0.7571 -0.6278 -0.1807
vn -0.0924 -0.9952 -0.0333
vn 0.2954 0.9456 -0.1360
usemtl g1_black.001
s off
f 202//1 209//2 211//3 112//4
f 36//5 157//5 139//5 129//5
f 200//6 213//6 162//6 164//6
f 53//7 190//7 180//7 56//8
f 181//9 57//10 55//11 54//10 179//10
f 50//12 108//13 107//14
f 219//15 50//16 215//15
f 148//17 200//17 145//17
f 108//18 104//18 107//18
f 199//19 189//19 190//19 53//19
f 194//20 171//20 172//20
f 199//21 187//21 188//21 189//21
f 111//22 217//23 114//23
f 137//24 33//24 34//24 32//24 23//24 28//24 136//24
f 143//25 147//25 1//25 19//25 26//25 29//25 142//25
f 144//26 200//26 164//26
usemtl g1_silver.001
s 1
f 95//27 48//28 49//29 52//30 96//31 103//32 79//33 80//34 76//35
f 45//36 100//37 97//38
f 50//39 98//40 132//41 126//42
f 213//43 204//44 173//45 174//46 162//46
f 46//47 41//48 40//49
f 16//50 25//51 27//52 26//53 19//54
f 64//55 69//56 67//57 13//58 14//59
f 159//60 11//61 10//62 12//63 146//64 149//65 158//60
f 44//66 45//36 206//67 208//68 51//69
f 196//70 209//71 202//72
f 62//73 63//74 60//75 163//76 165//77
f 170//78 171//79 194//80
f 151//81 152//82 161//83 124//84
f 62//73 165//77 166//85 61//86
f 125//87 54//88 55//89 205//90 199//91
f 53//92 56//93 125//87 199//91
f 21//94 24//95 72//96 73//97 74//98 71//99 20//100 31//101
f 154//102 160//103 123//104 153//105
f 81//106 83//107 82//108 89//109 88//110 101//111
f 15//112 10//62 11//61 13//58
f 145//113 200//113 144//113
f 217//114 111//115 81//106 101//111 192//116
f 219//117 177//118 183//119 191//120
f 34//121 35//122 32//123
f 212//124 194//80 172//125 175//126
f 191//120 183//119 184//127
f 78//128 91//129 92//130 75//131 77//132
f 18//133 17//133 30//134 16//50 19//54 1//135 147//135 127//136
f 209//71 102//137 109//138
f 24//95 21//94 22//139 23//140
f 5//141 4//142 8//143 200//144 2//145 7//146 6//147
f 118//148 193//149 201//150 117//151
f 52//30 49//29 43//152 42//153 44//66 51//69 210//154 214//155
f 4//142 67//57 66//156
f 4//142 5//141 15//112 13//58 67//57
f 133//157 38//158 37//159 40//49 41//48 35//122 34//121 33//160 141//161
f 163//76 60//75 58//162 182//163
f 93//164 94//165 27//52 25//51
f 22//139 21//94 31//101 30//134 17//133 18//133 127//136 130//166
f 32//123 72//96 24//95 23//140
f 15//112 5//141 6//147 121//167
f 38//158 133//157 134//168 138//169 37//159
f 35//122 41//48 46//47 44//66 42//153
f 194//80 218//170 70//171
f 28//172 23//140 22//139 128//173 135//174
f 181//175 182//163 58//162 59//176 57//177
f 186//178 199//91 191//120 185//179
f 81//106 111//115 114//180 115//180 118//181 117//182 66//156 65//183 83//107
f 47//184 39//185 36//186
f 73//97 72//96 43//152 95//27
f 104//187 108//188 50//189 219//117 191//120 199//91 205//90 59//176 58//162 60//75 63//74 218//170 194//80 212//124 203//190 204//44 213//43 200//144 201//150 193//149 217//114 192//116 195//191 207//192 202//72 112//193 214//155 210//154 208//68 206//67
f 215//194 50//39 216//195
f 70//171 168//196 169//197 170//78 194//80
f 199//91 186//178 187//198
f 106//199 104//187 198//200 100//37 99//201 98//40 50//39 107//202 105//203
f 113//204 110//205 103//32 96//31 197//206 112//193
f 99//201 131//207 132//41 98//40
f 2//145 200//144 7//146
f 63//74 62//73 61//86 218//170
f 116//208 200//144 119//209
f 66//156 117//182 116//210 3//211 4//142
f 94//165 93//164 92//130 90//212 89//109 82//108 84//213 87//214 86//215
f 200//144 116//208 117//151 201//150
f 73//97 76//35 80//34 77//132 75//131 74//98
f 28//172 135//174 136//216
f 92//130 91//129 88//110 89//109 90//212
f 191//120 184//127 185//179
f 198//200 97//38 100//37
f 203//190 212//124 176//217 167//218
f 150//219 142//219 29//220 14//59 13//58 11//61 159//60 158//60 149//65
f 107//202 104//187 106//199
f 198//200 104//187 97//38
f 97//38 104//187 206//67
f 106//199 105//203 107//202
f 91//129 78//128 102//137 209//71 196//70 202//72 207//192
f 68//221 65//183 66//156 67//57 69//56
f 54//88 125//87 56//93 180//222 179//223
f 175//126 176//217 212//124
f 8//143 119//209 200//144
f 57//177 59//176 205//90 55//89
f 94//165 86//215 85//224 64//55 14//59 29//220 26//53 27//52
f 113//225 112//226 211//227
f 181//228 179//228 180//228 190//228 189//228 188//228 187//228 186//228 185//228 184//229 183//228 177//228 178//228 126//228 132//228 131//228 129//230 139//228 138//228 134//228 133//231 141//228 140//228 137//228 136//228 135//228 128//228 130//232 127//228 147//228 143//232 142//228 150//228 149//228 146//233 156//234 155//235 154//228 153//228 152//228 151//228 148//228 145//228 144//228 164//228 162//228 174//228 173//228 167//228 176//228 175//228 172//236 171//237 170//238 169//239 168//228 166//228 165//228 163//228 182//228
f 3//211 8//143 4//142
f 74//98 75//131 92//130 93//164 71//99
f 114//240 217//114 115//241
f 156//242 146//64 12//63 155//243
f 51//69 208//68 210//154
f 110//244 113//225 211//227
f 79//33 102//137 78//128 77//132 80//34
f 48//28 95//27 43//152 49//29
f 129//245 131//207 99//201 100//37 45//36 47//184 36//186
f 130//166 128//173 22//139
f 46//47 40//49 37//159 138//169 139//246 157//246 36//186 39//185 47//184 45//36 44//66
f 52//30 214//155 197//206 96//31
f 86//215 87//214 84//213 68//221 69//56 64//55 85//224
f 20//100 71//99 93//164 25//51 16//50 30//134 31//101
f 82//108 83//107 65//183 68//221 84//213
f 8//143 3//211 116//210 119//209
f 103//32 110//205 109//138 102//137 79//33
f 9//247 7//146 200//144 122//248
f 110//244 211//227 209//71 109//138
f 124//84 161//83 152//82 153//105 123//104 120//249 121//167 6//147 7//146 9//247 122//248
f 95//27 76//35 73//97
f 141//161 33//160 137//250 140//250
f 214//155 112//193 197//206
f 45//36 97//38 206//67
f 216//195 178//251 177//118 219//117 215//194
f 178//251 216//195 50//39 126//42
f 203//190 167//218 173//45 204//44
f 35//122 42//153 43//152 72//96 32//123
f 217//114 193//149 118//148 115//241
f 91//129 207//192 195//191 192//116 101//111 88//110
f 166//85 168//196 70//171 61//86
f 160//103 154//102 155//243 12//63 10//62 15//112 121//167 120//249 123//104
f 218//170 61//86 70//171
f 124//84 122//248 200//144 148//252 151//81
